PathFileType	4	(X/Y/Z)	Patient4_TMGait_0pt4_02_right_01.trc.trc
DataRate	CameraRate	NumFrames	NumMarkers	Units	OrigDataRate	OrigDataStartFrame	OrigNumFrames
71.428571428571	71.428571428571	4	33	mm	71.428571428571	124	       141
Frame#	Time	Sacral			L.Shoulder			Chest			R.Shoulder			Neck			R.ASIS			L.ASIS			R.Thigh.Superior			R.Thigh.Lateral			R.Thigh.Inferior			R.Patella			L.Thigh.Superior			L.Thigh.Lateral			L.Thigh.Inferior			L.Patella			L.Shank.Superior			L.Shank.Lateral			L.Shank.Inferior			R.Shank.Superior			R.Shank.Lateral			R.Shank.Inferior			R.Heel			R.Midfoot.Superior			R.Midfoot.Lateral			R.Toe			L.Heel			L.Midfoot.Lateral			L.Midfoot.Superior			L.Toe			L.Elbow			L.Wrist			R.Elbow			R.Wrist			
		X1	Y1	Z1	X2	Y2	Z2	X3	Y3	Z3	X4	Y4	Z4	X5	Y5	Z5	X6	Y6	Z6	X7	Y7	Z7	X8	Y8	Z8	X9	Y9	Z9	X10	Y10	Z10	X11	Y11	Z11	X12	Y12	Z12	X13	Y13	Z13	X14	Y14	Z14	X15	Y15	Z15	X16	Y16	Z16	X17	Y17	Z17	X18	Y18	Z18	X19	Y19	Z19	X20	Y20	Z20	X21	Y21	Z21	X22	Y22	Z22	X23	Y23	Z23	X24	Y24	Z24	X25	Y25	Z25	X26	Y26	Z26	X27	Y27	Z27	X28	Y28	Z28	X29	Y29	Z29	X30	Y30	Z30	X31	Y31	Z31	X32	Y32	Z32	X33	Y33	Z33	

124	2.212000000000	865.664760862344	998.192009384671	429.850139529773	1063.982683877073	1428.146066968377	256.268692680992	1143.068171072608	1365.815165213048	432.102653373140	1032.837730696965	1440.358308485281	590.198193738997	1022.850679533281	1492.259885591434	408.620338213296	1083.941788236654	944.501684041773	572.706319654597	1096.012063522386	958.840852119178	295.749630777204	1148.928393254904	754.268370917748	552.749146263036	1082.785044297025	635.717243419020	615.323352602233	1173.570822423149	592.303730821848	542.033228752328	1193.472925790338	510.549901642702	553.348986173847	1103.969372335669	732.580165255529	326.050130286687	995.627751314252	633.586372593140	255.859484658641	1055.217330093538	542.936198143292	323.556354418844	1041.059500972709	475.954388029082	331.902619656340	1009.099361819587	408.402219993691	321.740138882725	908.881471765989	303.847179089276	267.014015981047	944.769381037388	187.989117230132	340.607941368164	1175.978460138290	421.727929618584	564.201384976140	1117.504579697407	311.009286882838	627.107500142990	1182.924649496593	222.407213821346	576.038519043784	1083.372103079166	44.143166122529	548.341820483006	1249.335749807873	106.642852557026	587.654403664927	1166.344521739421	39.725652310109	623.346074134764	1371.434565923628	62.917017164175	615.105389498145	806.142892269000	38.472573677180	382.050306886920	879.328679035994	34.661084509195	300.864432121913	963.054386934150	95.458481560069	328.215014138093	1091.805960612543	41.922722272128	299.017658799649	1133.338720405552	1097.048750287896	111.751112611050	1367.256110437537	980.339092430588	136.915386917435	936.247188361677	1106.210674776341	703.114158851918	1001.829900312518	853.533212280168	722.457014757570	
125	2.226000000000	867.651904670349	996.769766599083	432.734919993680	1063.530946433010	1427.716402018444	259.584014290421	1143.193652503956	1365.580988560547	435.257876382376	1032.717193047815	1439.297074861729	593.633163183089	1022.444638869160	1491.508744928300	412.099226393993	1086.631651746314	943.670822428079	574.904032442530	1097.668111220409	958.331940152557	298.075519062969	1152.624735263847	753.515816533044	553.477941333044	1086.042235982341	634.594552068729	615.138896407835	1176.605466394603	591.590620011905	541.584402112761	1195.144708147381	508.355649220196	552.126867224765	1104.827182334333	731.324110455091	326.935612527918	995.367168608149	633.070483717378	257.770267114399	1055.073687812150	541.847295709276	324.654522739535	1040.786507603097	474.315260729510	332.835151617288	1007.536795158923	407.271609679620	322.772055937908	905.505086291962	304.272086369016	268.164346933177	940.243432907024	187.471584871139	340.929224459342	1175.917912754128	418.715306933759	562.925458819353	1114.953078683341	309.319045562082	626.198349378760	1176.897369978300	218.921969150948	573.993529071578	1071.749777979092	43.560739691319	547.140780377491	1238.995782575085	103.045280554000	585.220468723826	1154.700285677100	38.561624894539	622.242737021301	1360.644820416540	57.190060850900	613.179902113334	800.413085485074	38.475342770614	382.033024577859	873.673921306246	34.567832809252	300.948725419377	957.464926979176	95.379573201977	328.275289101238	1086.245563986840	41.660868738778	298.945622905102	1131.317660015980	1095.810872979563	115.450792846486	1363.606255350226	975.302696121882	139.607577578923	939.158744835724	1104.094604657868	706.403817560547	1010.679316387429	852.905707805760	724.768337454532	
126	2.240000000000	869.717514464513	995.518617710869	435.818139835532	1063.045199689091	1427.431051926841	263.040334768641	1143.422258116179	1365.487490527676	438.494417014651	1032.823010037472	1438.361948913422	597.240159049174	1022.117666472426	1490.900722763318	415.754100758538	1089.519611542660	943.006438372811	577.100561143423	1099.340167245121	957.982270269936	300.447040551119	1156.265848263525	752.769916037828	553.962288935652	1089.510083353360	633.805852464177	615.245796867922	1179.428904516271	590.948386017215	541.050196323238	1196.721808910290	506.356120855848	551.098655423685	1105.938508909961	730.211265431112	327.825362952916	995.490596946681	632.549227978751	259.842555704048	1055.589649584939	540.794811544389	325.812703713199	1041.291220040666	472.568747999746	333.739079866080	1006.517971164011	406.093710844306	323.839374670668	902.459445281300	304.894886457802	269.440778764749	935.917004367195	187.058562841137	341.254282438956	1175.981877670816	416.116437776046	561.969071599126	1113.098612262167	307.936234885769	625.873330931152	1171.687741645284	215.969561934028	572.379383295890	1061.492268899602	43.081923257485	546.593311926428	1229.838157697798	100.306817117814	583.276753957579	1144.588941129062	37.733182211267	621.588227612115	1351.209728027594	52.743626628616	611.377194661771	794.662997920557	38.755565051426	381.987346405261	868.023282813788	34.572403769485	301.037875637323	951.974410884006	95.331093207009	328.286553675610	1080.702789678845	41.356065950811	298.855413039311	1128.902259055744	1094.578189932062	119.406658115848	1359.145891095498	969.544491385484	142.082704636726	942.326792169791	1102.167140735480	709.970273090437	1020.024654657804	852.649821880377	727.356317099547	
127	2.254000000000	871.808054279966	994.508237924213	439.075002769617	1062.543759009674	1427.335817410092	266.605965932582	1143.760109984585	1365.560826618829	441.776159948598	1033.186486574833	1437.611259314572	600.979808386082	1021.887872411929	1490.482312001503	419.547173021432	1092.508231833280	942.547125769759	579.315416787628	1100.991714151130	957.834149486169	302.866956922113	1159.679618359161	752.079800516024	554.309213947508	1093.000281848271	633.361470463821	615.721232554689	1181.906253455448	590.405142198809	540.577284900087	1198.095401508271	504.627917351694	550.433324160754	1107.351853146691	729.333057385770	328.808776993334	996.141815675665	632.031872113329	262.058060914974	1056.947566073604	539.819665691582	327.032120383100	1042.760036033949	470.743720343519	334.572217984826	1006.207211666964	404.897741667038	324.904823918277	899.901031714853	305.791705535131	270.811790781814	931.897693644196	186.831213643195	341.552399555767	1176.073969477571	414.000589965537	561.426525669725	1111.817250861338	306.880189779138	626.091798369288	1167.308102984224	213.629749035000	571.250469513046	1052.765837750436	42.733503963559	546.549166884715	1221.981740174217	98.442331724279	581.902095315132	1136.096806265703	37.222748085075	621.317815625980	1343.210867992441	49.592463953892	609.880207778225	788.936676742133	39.507798520415	381.897607737882	862.404255043998	34.776380869388	301.119481351467	946.657703038529	95.346801035982	328.215870577029	1075.180494698847	41.005953883903	298.748593690010	1126.098774787526	1093.399269134278	123.627187748342	1353.805810083974	963.112021799533	144.324607005960	945.794739966276	1100.499484656634	713.805439792573	1029.831841009961	852.841658816078	730.183869213547	
